<svg width="256" height="256" viewBox="0 0 256 256" fill="none" xmlns="http://www.w3.org/2000/svg">
<path d="M0.000976562 126.14V37.284C0.000976562 18.528 15.206 3.323 33.962 3.323H206.374C225.13 3.323 240.334 18.528 240.334 37.283V203.801C240.334 222.557 225.129 237.761 206.374 237.761H111.624C100.366 237.761 89.57 233.289 81.609 225.328L12.434 156.153C4.47298 148.194 0.000976562 137.398 0.000976562 126.14Z" fill="#FFB8E1"/>
<path d="M143.83 146.299C138.417 146.299 133.275 143.801 129.929 139.486L100.515 101.544C94.562 93.866 95.961 82.816 103.64 76.863C111.319 70.91 122.369 72.31 128.321 79.987L141.525 97.02L167.292 51.394C172.07 42.934 182.799 39.95 191.26 44.727C199.72 49.505 202.704 60.235 197.927 68.695L159.149 137.358C156.253 142.486 150.983 145.825 145.109 146.252C144.683 146.284 144.255 146.299 143.83 146.299Z" fill="#FFF3EB"/>
<path d="M0 126.134V118.887C0 132.601 11.121 143.722 24.835 143.722H60.081C78.835 143.722 94.038 158.926 94.038 177.679V212.925C94.038 226.639 105.159 237.76 118.873 237.76H111.626C100.366 237.76 89.569 233.284 81.605 225.327L12.433 156.155C4.476 148.191 0 137.394 0 126.134Z" fill="#FF90D0"/>
</svg>
