<svg width="20" height="20" viewBox="0 0 20 20" fill="none" xmlns="http://www.w3.org/2000/svg">
<path d="M8.8066 0C8.2896 0 7.79565 0.204313 7.42965 0.570312L6.99996 1H1.99996C1.86745 0.998126 1.73589 1.02261 1.61292 1.07202C1.48995 1.12143 1.37803 1.1948 1.28366 1.28784C1.18929 1.38088 1.11435 1.49176 1.0632 1.61401C1.01206 1.73627 0.985718 1.86747 0.985718 2C0.985718 2.13253 1.01206 2.26373 1.0632 2.38599C1.11435 2.50824 1.18929 2.61912 1.28366 2.71216C1.37803 2.8052 1.48995 2.87857 1.61292 2.92798C1.73589 2.97739 1.86745 3.00187 1.99996 3H18C18.1325 3.00187 18.264 2.97739 18.387 2.92798C18.51 2.87857 18.6219 2.8052 18.7163 2.71216C18.8106 2.61912 18.8856 2.50824 18.9367 2.38599C18.9879 2.26373 19.0142 2.13253 19.0142 2C19.0142 1.86747 18.9879 1.73627 18.9367 1.61401C18.8856 1.49176 18.8106 1.38088 18.7163 1.28784C18.6219 1.1948 18.51 1.12143 18.387 1.07202C18.264 1.02261 18.1325 0.998126 18 1H13L12.5703 0.570312C12.2053 0.204313 11.7103 0 11.1933 0H8.8066ZM2.36519 5L3.89254 18.2637C4.02454 19.2537 4.87696 20 5.87496 20H14.123C15.121 20 15.9744 19.2549 16.1074 18.2559L17.6347 5H2.36519Z" fill="#909090"/>
</svg>
